<svg xmlns="http://www.w3.org/2000/svg" viewBox="0 0 1024 1024">
  <path d="M512 0C229 0 0 229 0 512c0 226 147 418 350 486 26 5 35-11 35-25 0-12 0-53-1-95C242 909 212 818 212 818c-23-59-57-75-57-75-47-32 4-31 4-31 51 4 78 53 78 53 46 78 120 56 149 43 5-33 18-56 33-68C305 725 185 682 185 485c0-56 20-102 53-137-5-13-23-65 5-136 0 0 43-14 141 53 41-11 85-17 128-17 44 0 87 6 128 17 98-66 141-52 141-52 28 71 10 123 5 136 33 36 53 81 53 137 0 197-120 240-234 253 18 16 35 47 35 95 0 68-1 124-1 141 0 14 9 30 35 25C877 930 1024 738 1024 512 1024 229 795 0 512 0z"/>
</svg>